<svg width="315" height="83" viewBox="0 0 315 83" fill="none" xmlns="http://www.w3.org/2000/svg">
<path d="M80.432 29.4088C82.775 31.752 82.775 35.551 80.432 37.8941L37.8609 80.465C35.5178 82.809 31.7188 82.809 29.3756 80.465L2.58553 53.675C0.242325 51.332 0.242325 47.5331 2.58553 45.19L45.1568 2.61873C47.4999 0.275528 51.299 0.275528 53.642 2.61873L80.432 29.4088Z" fill="#2F2B71"/>
<path d="M90.432 37.8941C92.775 35.551 92.775 31.752 90.432 29.4088L70.733 9.71003L77.825 2.61873C80.168 0.275528 83.967 0.275528 86.31 2.61873L113.1 29.4088C115.443 31.752 115.443 35.551 113.1 37.8941L70.529 80.465C68.186 82.809 64.387 82.809 62.043 80.465L54.952 73.374L90.432 37.8941Z" fill="#2F2B71"/>
<path d="M160.078 44.5385C162.339 44.9601 164.198 46.0909 165.655 47.9307C167.111 49.7706 167.84 51.879 167.84 54.255C167.84 56.402 167.303 58.299 166.23 59.947C165.195 61.557 163.681 62.822 161.688 63.742C159.695 64.662 157.337 65.122 154.616 65.122H137.31V24.99H153.868C156.59 24.99 158.928 25.4308 160.883 26.3124C162.876 27.194 164.371 28.4206 165.367 29.9921C166.402 31.5637 166.92 33.346 166.92 35.3392C166.92 37.6774 166.287 39.6322 165.022 41.2038C163.796 42.7753 162.148 43.8869 160.078 44.5385ZM145.359 41.5487H152.718C154.635 41.5487 156.111 41.1271 157.146 40.2838C158.18 39.4022 158.698 38.1565 158.698 36.5466C158.698 34.9367 158.18 33.691 157.146 32.8094C156.111 31.9278 154.635 31.487 152.718 31.487H145.359V41.5487ZM153.466 58.567C155.421 58.567 156.935 58.107 158.008 57.188C159.12 56.268 159.675 54.964 159.675 53.278C159.675 51.553 159.1 50.2114 157.95 49.2531C156.801 48.2566 155.248 47.7583 153.293 47.7583H145.359V58.567H153.466Z" fill="#2F2B71"/>
<path d="M186.099 65.6391C183.033 65.6391 180.273 64.9691 177.82 63.6271C175.367 62.2471 173.431 60.3111 172.013 57.8201C170.633 55.3291 169.943 52.4541 169.943 49.1958C169.943 45.9377 170.652 43.0628 172.07 40.5714C173.527 38.0799 175.501 36.1634 177.992 34.8219C180.484 33.442 183.263 32.752 186.329 32.752C189.395 32.752 192.174 33.442 194.666 34.8219C197.157 36.1634 199.112 38.0799 200.53 40.5714C201.987 43.0628 202.715 45.9377 202.715 49.1958C202.715 52.4541 201.968 55.3291 200.473 57.8201C199.016 60.3111 197.023 62.2471 194.493 63.6271C192.002 64.9691 189.204 65.6391 186.099 65.6391ZM186.099 58.6251C187.556 58.6251 188.916 58.28 190.181 57.59C191.484 56.862 192.519 55.7881 193.286 54.3701C194.053 52.9521 194.436 51.2271 194.436 49.1958C194.436 46.1677 193.631 43.8487 192.021 42.2388C190.45 40.5906 188.514 39.7665 186.214 39.7665C183.914 39.7665 181.979 40.5906 180.407 42.2388C178.874 43.8487 178.107 46.1677 178.107 49.1958C178.107 52.2241 178.855 54.5621 180.35 56.2101C181.883 57.8201 183.799 58.6251 186.099 58.6251Z" fill="#2F2B71"/>
<path d="M214.369 38.2139C215.404 36.5274 216.746 35.205 218.394 34.2467C220.081 33.2884 221.997 32.8093 224.144 32.8093V41.2612H222.016C219.486 41.2612 217.57 41.8553 216.267 43.0435C215.002 44.2318 214.369 46.3016 214.369 49.253V65.1219H206.32V33.2693H214.369V38.2139Z" fill="#2F2B71"/>
<path d="M225.196 49.0807C225.196 45.8609 225.828 43.0053 227.093 40.5138C228.396 38.0223 230.159 36.1058 232.383 34.7643C234.606 33.4227 237.078 32.7519 239.799 32.7519C241.869 32.7519 243.843 33.2119 245.722 34.1318C247.6 35.0134 249.095 36.2016 250.206 37.6965V22.5752H258.371V65.122H250.206V60.407C249.21 61.979 247.811 63.244 246.009 64.202C244.207 65.16 242.118 65.639 239.742 65.639C237.059 65.639 234.606 64.949 232.383 63.57C230.159 62.19 228.396 60.254 227.093 57.762C225.828 55.233 225.196 52.339 225.196 49.0807ZM250.264 49.1957C250.264 47.2408 249.88 45.5734 249.114 44.1935C248.347 42.7753 247.312 41.7021 246.009 40.9738C244.706 40.2072 243.307 39.8239 241.812 39.8239C240.317 39.8239 238.937 40.188 237.672 40.9163C236.407 41.6446 235.372 42.7178 234.567 44.136C233.801 45.5159 233.417 47.1641 233.417 49.0807C233.417 50.997 233.801 52.684 234.567 54.14C235.372 55.558 236.407 56.651 237.672 57.418C238.975 58.184 240.355 58.567 241.812 58.567C243.307 58.567 244.706 58.203 246.009 57.475C247.312 56.708 248.347 55.635 249.114 54.255C249.88 52.837 250.264 51.151 250.264 49.1957Z" fill="#2F2B71"/>
<path d="M293.543 48.5058C293.543 49.6557 293.466 50.6911 293.313 51.6101H270.027C270.219 53.9101 271.023 55.7121 272.442 57.0151C273.86 58.3181 275.604 58.9701 277.674 58.9701C280.664 58.9701 282.791 57.686 284.056 55.118H292.738C291.818 58.184 290.055 60.7141 287.448 62.7071C284.842 64.6621 281.641 65.6391 277.846 65.6391C274.78 65.6391 272.02 64.9691 269.567 63.6271C267.152 62.2471 265.255 60.3111 263.875 57.8201C262.533 55.3291 261.863 52.4541 261.863 49.1958C261.863 45.8993 262.533 43.0054 263.875 40.5139C265.216 38.0224 267.095 36.1059 269.509 34.7644C271.924 33.4228 274.703 32.752 277.846 32.752C280.874 32.752 283.577 33.4036 285.953 34.7069C288.368 36.0101 290.227 37.8691 291.53 40.2839C292.872 42.6604 293.543 45.401 293.543 48.5058ZM285.206 46.206C285.167 44.1361 284.42 42.4879 282.963 41.2614C281.507 39.9965 279.724 39.364 277.616 39.364C275.623 39.364 273.937 39.9772 272.557 41.2038C271.215 42.392 270.391 44.0595 270.084 46.206H285.206Z" fill="#2F2B71"/>
<path d="M305.167 38.2139C306.202 36.5274 307.544 35.205 309.192 34.2467C310.879 33.2884 312.795 32.8093 314.942 32.8093V41.2612H312.814C310.285 41.2612 308.368 41.8553 307.065 43.0435C305.8 44.2318 305.167 46.3016 305.167 49.253V65.1219H297.118V33.2693H305.167V38.2139Z" fill="#2F2B71"/>
</svg>
