<svg width="404" height="105" viewBox="0 0 404 105" fill="none" xmlns="http://www.w3.org/2000/svg">
<path d="M137.89 80.927C141.977 82.942 146.871 83.949 152.57 83.949C158.558 83.949 163.71 82.827 168.028 80.581C172.346 78.336 175.742 75.343 178.218 71.601C180.693 67.859 182.219 63.7423 182.795 59.2518H170.446C169.755 63.4544 167.769 66.736 164.487 69.096C161.263 71.399 157.291 72.55 152.57 72.55C149.346 72.55 146.497 72.004 144.021 70.91C141.603 69.816 139.56 68.29 137.89 66.333C136.22 64.318 134.954 61.9864 134.09 59.3382C133.284 56.69 132.881 53.8115 132.881 50.7027C132.881 47.4788 133.284 44.5427 134.09 41.8945C134.954 39.2463 136.192 36.9435 137.804 34.9861C139.416 33.0287 141.431 31.5319 143.848 30.4956C146.266 29.4018 149.03 28.8549 152.139 28.8549C155.19 28.8549 157.924 29.373 160.342 30.4093C162.76 31.388 164.746 32.8848 166.301 34.8997C167.913 36.8571 168.949 39.2751 169.41 42.1536H181.758C181.24 37.2025 179.715 32.8848 177.181 29.2003C174.648 25.4583 171.252 22.5798 166.992 20.5648C162.789 18.4923 157.838 17.4561 152.139 17.4561C146.669 17.4561 141.92 18.406 137.89 20.3058C133.918 22.148 130.636 24.6235 128.046 27.7323C125.455 30.8411 123.526 34.2953 122.26 38.0949C121.051 41.8945 120.446 45.7517 120.446 49.6664V51.5662C120.446 55.078 121.051 58.7337 122.26 62.5333C123.469 66.333 125.34 69.845 127.873 73.069C130.463 76.293 133.803 78.912 137.89 80.927Z" fill="#2F2B71"/>
<path fill-rule="evenodd" clip-rule="evenodd" d="M214.817 76.6091C215.411 75.6031 215.9 74.4931 216.285 73.2781V82.3091H225.784V53.2071C225.784 48.8318 224.95 45.2912 223.28 42.5854C221.668 39.8795 219.25 37.8935 216.026 36.6269C212.86 35.3604 208.859 34.7271 204.023 34.7271C202.469 34.7271 200.799 34.7559 199.014 34.8135C197.287 34.8135 195.589 34.8711 193.919 34.9862C192.25 35.1013 190.753 35.2165 189.429 35.3316V45.5215C191.041 45.4064 192.854 45.32 194.869 45.2624C196.942 45.1473 198.986 45.0609 201.001 45.0034C203.016 44.9458 204.743 44.917 206.182 44.917C208.945 44.917 210.989 45.5791 212.313 46.9032C213.637 48.2273 214.299 50.2422 214.299 52.948V53.3798H204.714C200.569 53.3798 196.942 53.9267 193.833 55.0205C190.782 56.1144 188.393 57.7551 186.666 59.9428C184.996 62.1304 184.161 64.9514 184.161 68.4051C184.161 71.5721 184.852 74.2781 186.234 76.5231C187.673 78.7681 189.659 80.4951 192.192 81.7041C194.783 82.9131 197.777 83.5181 201.173 83.5181C204.455 83.5181 207.218 82.9421 209.463 81.7901C211.766 80.5811 213.551 78.8541 214.817 76.6091ZM212.658 70.9961C213.637 69.4991 214.184 67.4841 214.299 64.9513V60.5473H204.541C201.778 60.5473 199.648 61.2381 198.151 62.6198C196.712 63.9439 195.992 65.6711 195.992 67.8011C195.992 69.9311 196.712 71.6581 198.151 72.9821C199.648 74.3061 201.778 74.9681 204.541 74.9681C206.211 74.9681 207.736 74.6811 209.118 74.1051C210.557 73.4721 211.737 72.4351 212.658 70.9961Z" fill="#2F2B71"/>
<path d="M255.136 83.949C251.048 83.949 247.508 83.258 244.514 81.877C241.578 80.495 239.102 78.653 237.087 76.35C235.13 74.047 233.662 71.457 232.683 68.578C231.705 65.7 231.215 62.7636 231.215 59.77V58.1292C231.215 54.9629 231.705 51.9404 232.683 49.062C233.72 46.1259 235.245 43.5352 237.26 41.29C239.275 38.9872 241.751 37.1738 244.687 35.8496C247.68 34.468 251.135 33.7771 255.049 33.7771C259.137 33.7771 262.792 34.5831 266.016 36.1951C269.24 37.7495 271.802 39.9371 273.702 42.758C275.659 45.579 276.753 48.8605 276.983 52.6025H265.326C265.038 50.1846 264.001 48.1696 262.217 46.5577C260.49 44.9457 258.1 44.1397 255.049 44.1397C252.401 44.1397 250.185 44.773 248.4 46.0395C246.673 47.3061 245.378 49.0619 244.514 51.3072C243.65 53.4948 243.219 56.0279 243.219 58.9064C243.219 61.6698 243.622 64.1741 244.428 66.419C245.291 68.665 246.587 70.42 248.314 71.687C250.098 72.953 252.372 73.587 255.136 73.587C257.208 73.587 258.993 73.213 260.49 72.464C261.986 71.716 263.167 70.679 264.03 69.355C264.951 68.031 265.527 66.534 265.757 64.8649H277.415C277.185 68.665 276.062 72.004 274.047 74.882C272.09 77.703 269.471 79.919 266.189 81.531C262.965 83.143 259.281 83.949 255.136 83.949Z" fill="#2F2B71"/>
<path d="M292.385 81.272C295.206 82.366 298.775 82.913 303.093 82.913H309.829V72.637H302.488C300.186 72.637 298.401 72.032 297.134 70.823C295.926 69.557 295.321 67.772 295.321 65.4694L295.363 44.2261H309.829V35.4179H295.381L295.407 22.2056H284.181L284.154 35.4179H276.668V44.2261H284.136L284.095 64.6922C284.095 69.24 284.786 72.867 286.167 75.573C287.549 78.221 289.622 80.121 292.385 81.272Z" fill="#2F2B71"/>
<path d="M331.561 83.777C326.149 83.777 321.947 81.992 318.953 78.423C316.017 74.853 314.549 69.557 314.549 62.5333V35.3315H326.552V63.5696C326.552 66.448 327.358 68.751 328.97 70.478C330.582 72.147 332.77 72.982 335.533 72.982C338.297 72.982 340.542 72.09 342.269 70.305C344.054 68.521 344.946 66.103 344.946 63.0514V35.3315H356.949V82.309H347.45V71.389C347.209 72.382 346.921 73.317 346.587 74.191C345.378 77.358 343.564 79.747 341.146 81.359C338.729 82.971 335.706 83.777 332.079 83.777H331.561Z" fill="#2F2B71"/>
<path d="M368.234 79.7179C371.918 82.4239 376.984 83.7769 383.432 83.7769C387.577 83.7769 391.175 83.1429 394.226 81.8769C397.278 80.6099 399.638 78.8539 401.307 76.6089C403.035 74.3059 403.898 71.6009 403.898 68.4919C403.898 64.2891 402.315 60.95 399.149 58.4745C396.04 55.999 391.722 54.4734 386.195 53.8977L382.05 53.4659C379.517 53.1781 377.675 52.6312 376.524 51.8252C375.43 51.0192 374.883 49.8678 374.883 48.371C374.883 46.8166 375.574 45.5501 376.955 44.5714C378.337 43.5927 380.294 43.1034 382.828 43.1034C385.648 43.1034 387.807 43.6791 389.304 44.8305C390.801 45.9819 391.607 47.3635 391.722 48.9755H402.516C402.344 44.082 400.473 40.3688 396.903 37.8357C393.334 35.3026 388.671 34.0361 382.914 34.0361C379.229 34.0361 375.948 34.6118 373.069 35.7632C370.249 36.857 368.032 38.4978 366.42 40.6854C364.808 42.8731 364.002 45.5789 364.002 48.8028C364.002 52.8327 365.413 56.0566 368.234 58.4745C371.054 60.8925 375.084 62.3893 380.323 62.965L384.468 63.3968C387.577 63.6846 389.765 64.2891 391.031 65.2102C392.355 66.1309 393.017 67.3689 393.017 68.9239C393.017 70.7079 392.154 72.1189 390.427 73.1549C388.757 74.1909 386.483 74.7089 383.605 74.7089C380.151 74.7089 377.617 74.0469 376.005 72.7229C374.394 71.3989 373.501 69.9309 373.328 68.3189H362.534C362.707 73.1549 364.607 76.9549 368.234 79.7179Z" fill="#2F2B71"/>
<path fill-rule="evenodd" clip-rule="evenodd" d="M52.3877 0.5C23.7746 0.5 0.579102 23.6955 0.579102 52.3086C0.579102 80.922 23.7746 104.117 52.3877 104.117C81.001 104.117 104.196 80.922 104.196 52.3086C104.196 23.6955 81.001 0.5 52.3877 0.5ZM12.1963 52.3086C12.1963 30.1115 30.1906 12.1172 52.3877 12.1172C74.585 12.1172 92.579 30.1115 92.579 52.3086C92.579 72.566 77.592 89.323 58.1009 92.097V83.232L68.417 79.423C74.379 77.223 78.338 71.54 78.338 65.1853V47.7295C78.338 44.5215 75.737 41.9209 72.529 41.9209C69.321 41.9209 66.721 44.5215 66.721 47.7295V65.1853C66.721 66.676 65.792 68.009 64.3935 68.525L58.1009 70.848V24.8701C58.1009 21.6621 55.5003 19.0615 52.2923 19.0615C49.0842 19.0615 46.4836 21.6621 46.4836 24.8701V49.793L40.379 47.5395C38.9805 47.0232 38.0518 45.6903 38.0518 44.1996V36.6747C38.0518 33.4667 35.4512 30.8661 32.2432 30.8661C29.0352 30.8661 26.4346 33.4667 26.4346 36.6747V44.1996C26.4346 50.5547 30.3939 56.2369 36.3558 58.4378L46.4836 62.1766V92.069C27.0856 89.214 12.1963 72.5 12.1963 52.3086Z" fill="#2F2B71"/>
</svg>
