<svg width="363" height="90" viewBox="0 0 363 90" fill="none" xmlns="http://www.w3.org/2000/svg">
<path d="M164.839 68.414C161.68 68.414 158.741 67.874 156.022 66.794C153.343 65.675 150.984 64.115 148.944 62.116C146.945 60.116 145.385 57.797 144.266 55.158C143.146 52.479 142.586 49.5995 142.586 46.5204C142.586 43.4414 143.146 40.5822 144.266 37.943C145.385 35.2639 146.945 32.9446 148.944 30.9852C150.944 29.0258 153.283 27.5062 155.962 26.4266C158.681 25.3069 161.62 24.7471 164.779 24.7471C168.138 24.7471 171.118 25.2869 173.717 26.3666C175.947 27.2792 177.935 28.4774 179.681 29.9614C180.208 30.4097 180.216 31.208 179.729 31.6997L175.223 36.2479C174.728 36.7475 173.921 36.7297 173.386 36.273C172.467 35.4886 171.418 34.8456 170.238 34.3441C168.678 33.6644 166.859 33.3245 164.779 33.3245C162.94 33.3245 161.241 33.6444 159.681 34.2842C158.161 34.884 156.842 35.7637 155.722 36.9234C154.643 38.083 153.783 39.4826 153.143 41.1221C152.543 42.7616 152.243 44.561 152.243 46.5204C152.243 48.5198 152.543 50.3393 153.143 51.979C153.783 53.618 154.643 55.018 155.722 56.177C156.842 57.337 158.161 58.237 159.681 58.877C161.241 59.516 162.94 59.836 164.779 59.836C166.939 59.836 168.818 59.496 170.418 58.817C171.613 58.309 172.686 57.655 173.636 56.857C174.166 56.411 174.958 56.399 175.447 56.889L180.002 61.443C180.5 61.941 180.485 62.756 179.942 63.203C178.141 64.685 176.126 65.882 173.897 66.794C171.297 67.874 168.278 68.414 164.839 68.414Z" fill="#2F2B70"/>
<path d="M131.411 67.7541C130.727 67.7541 130.172 67.1991 130.172 66.5151V26.6459C130.172 25.9616 130.727 25.407 131.411 25.407H138.35C139.034 25.407 139.589 25.9616 139.589 26.6459V66.5151C139.589 67.1991 139.034 67.7541 138.35 67.7541H131.411Z" fill="#2F2B70"/>
<path d="M183.101 66.5151C183.101 67.1991 183.656 67.7541 184.34 67.7541H191.279C191.323 67.7541 191.366 67.7521 191.409 67.7471C191.451 67.7521 191.494 67.7541 191.538 67.7541H212.273C212.957 67.7541 213.512 67.1991 213.512 66.5151V60.8351C213.512 60.1511 212.957 59.5961 212.273 59.5961H192.518V50.0595H210.174C210.858 50.0595 211.412 49.5048 211.412 48.8206V43.4407C211.412 42.7565 210.858 42.2018 210.174 42.2018H192.518V33.5045H211.973C212.657 33.5045 213.212 32.9498 213.212 32.2656V26.6459C213.212 25.9616 212.657 25.407 211.973 25.407H191.538C191.494 25.407 191.451 25.4092 191.409 25.4136C191.366 25.4092 191.323 25.407 191.279 25.407H184.34C183.656 25.407 183.101 25.9616 183.101 26.6459V66.5151Z" fill="#2F2B70"/>
<path fill-rule="evenodd" clip-rule="evenodd" d="M225.441 67.7541C225.377 67.7541 225.314 67.7491 225.252 67.7401C225.191 67.7491 225.127 67.7541 225.063 67.7541H218.244C217.559 67.7541 217.005 67.1991 217.005 66.5151V26.6459C217.005 25.9616 217.559 25.407 218.244 25.407H225.063C225.127 25.407 225.191 25.4119 225.252 25.4213C225.314 25.4119 225.377 25.407 225.441 25.407H235.179C237.898 25.407 240.198 25.9068 242.077 26.9065C243.997 27.9062 245.456 29.2458 246.456 30.9253C247.455 32.6048 247.955 34.4642 247.955 36.5036C247.955 39.1028 247.116 41.3021 245.436 43.1016C244.713 43.8768 243.841 44.5481 242.82 45.1156C244.251 45.8166 245.463 46.7048 246.456 47.7801C248.415 49.8595 249.395 52.4191 249.395 55.4581C249.395 57.7771 248.815 59.8761 247.655 61.7561C246.536 63.5951 244.896 65.0551 242.737 66.1341C240.618 67.2141 238.058 67.7541 235.059 67.7541H225.441ZM226.302 60.4361H234.16C235.999 60.4361 237.439 59.8961 238.478 58.8171C239.518 57.7371 240.038 56.4171 240.038 54.8581C240.038 53.7781 239.798 52.8191 239.318 51.9791C238.838 51.1391 238.158 50.4793 237.279 49.9995C236.439 49.5196 235.399 49.2797 234.16 49.2797H226.302V60.4361ZM233.38 42.1419H226.302V32.7247H233.38C234.939 32.7247 236.199 33.1246 237.159 33.9244C238.118 34.6841 238.598 35.8438 238.598 37.4033C238.598 39.0028 238.118 40.2025 237.159 41.0022C236.199 41.762 234.939 42.1419 233.38 42.1419Z" fill="#2F2B70"/>
<path d="M252.431 66.5151C252.431 67.1991 252.986 67.7541 253.67 67.7541H260.61C260.653 67.7541 260.696 67.7521 260.739 67.7471C260.781 67.7521 260.825 67.7541 260.868 67.7541H281.603C282.288 67.7541 282.842 67.1991 282.842 66.5151V60.8351C282.842 60.1511 282.288 59.5961 281.603 59.5961H261.849V50.0595H279.504C280.188 50.0595 280.743 49.5048 280.743 48.8206V43.4407C280.743 42.7565 280.188 42.2018 279.504 42.2018H261.849V33.5045H281.303C281.988 33.5045 282.542 32.9498 282.542 32.2656V26.6459C282.542 25.9616 281.988 25.407 281.303 25.407H260.868C260.825 25.407 260.781 25.4092 260.739 25.4136C260.696 25.4092 260.653 25.407 260.61 25.407H253.67C252.986 25.407 252.431 25.9616 252.431 26.6459V66.5151Z" fill="#2F2B70"/>
<path fill-rule="evenodd" clip-rule="evenodd" d="M295.752 66.5151V50.2994H296.989C296.998 50.5311 297.073 50.7651 297.224 50.9731L308.997 67.2411C309.23 67.5631 309.603 67.7541 310.001 67.7541H318.019C319.045 67.7541 319.627 66.5781 319.004 65.7631L306.959 49.9945C308.4 49.7381 309.723 49.3199 310.928 48.7399C313.087 47.7002 314.767 46.2606 315.966 44.4212C317.166 42.5417 317.766 40.3624 317.766 37.8832C317.766 35.4439 317.166 33.2846 315.966 31.4051C314.767 29.5257 313.107 28.0662 310.988 27.0265C308.868 25.9468 306.409 25.407 303.61 25.407H294.772C294.728 25.407 294.685 25.4092 294.643 25.4136C294.6 25.4092 294.557 25.407 294.513 25.407H287.574C286.89 25.407 286.335 25.9616 286.335 26.6459V66.5151C286.335 67.1991 286.89 67.7541 287.574 67.7541H294.513C295.198 67.7541 295.752 67.1991 295.752 66.5151ZM302.47 43.3415H295.752V32.7247H302.53C304.41 32.7247 305.849 33.2246 306.849 34.2243C307.849 35.224 308.348 36.4836 308.348 38.0031C308.348 39.6426 307.829 40.9422 306.789 41.9019C305.789 42.8616 304.35 43.3415 302.47 43.3415Z" fill="#2F2B70"/>
<path d="M332.746 66.734C335.465 67.854 338.364 68.414 341.443 68.414C345.642 68.414 349.341 67.534 352.54 65.775C355.779 64.015 358.298 61.416 360.097 57.977C361.937 54.498 362.856 50.2193 362.856 45.1409V45.0002C362.856 44.3159 362.302 43.7613 361.617 43.7613H341.842C341.158 43.7613 340.603 44.3159 340.603 45.0002V50.519C340.603 51.196 341.146 51.747 341.822 51.758L352.769 51.932C352.536 52.813 352.219 53.629 351.82 54.378C350.9 56.137 349.56 57.497 347.801 58.457C346.081 59.377 343.982 59.836 341.503 59.836C339.064 59.836 336.904 59.277 335.025 58.157C333.145 57.037 331.666 55.478 330.586 53.478C329.507 51.479 328.967 49.1596 328.967 46.5204C328.967 43.8812 329.507 41.5819 330.586 39.6225C331.706 37.6231 333.245 36.0836 335.205 35.0039C337.164 33.8843 339.384 33.3245 341.863 33.3245C344.182 33.3245 346.261 33.7643 348.101 34.6441C349.545 35.3347 350.841 36.2964 351.989 37.5292C352.498 38.0756 353.367 38.1354 353.895 37.6073L358.512 32.9902C358.967 32.5349 359.001 31.8034 358.557 31.337C356.729 29.4177 354.503 27.8808 351.88 26.7265C348.921 25.4069 345.622 24.7471 341.983 24.7471C338.824 24.7471 335.865 25.3069 333.105 26.4266C330.346 27.5062 327.927 29.0458 325.848 31.0451C323.808 33.0046 322.209 35.3039 321.049 37.943C319.889 40.5822 319.31 43.4414 319.31 46.5204C319.31 49.5995 319.869 52.479 320.989 55.158C322.149 57.797 323.728 60.116 325.728 62.116C327.727 64.075 330.066 65.615 332.746 66.734Z" fill="#2F2B70"/>
<path d="M6.2723 10.3229C0.966797 17.0693 0.966797 26.9438 0.966797 46.6928C0.966797 66.442 0.966797 76.316 6.2723 83.063C7.4898 84.611 8.8875 86.008 10.4357 87.226C11.0282 87.692 11.6449 88.117 12.2903 88.505L38.4058 30.8472C39.5411 28.3406 42.4165 27.1327 45.0013 28.0763L61.597 34.135C63.165 34.7073 64.368 35.9896 64.839 37.5905L80.038 89.208C81.162 88.647 82.201 87.992 83.175 87.226C84.724 86.008 86.121 84.611 87.339 83.063C92.644 76.316 92.644 66.442 92.644 46.6928C92.644 26.9438 92.644 17.0693 87.339 10.3229C86.121 8.7747 84.724 7.377 83.175 6.1595C76.429 0.854004 66.554 0.854004 46.8055 0.854004C27.0566 0.854004 17.1821 0.854004 10.4357 6.1595C8.8875 7.377 7.4898 8.7747 6.2723 10.3229Z" fill="#2F2B70"/>
</svg>
