<svg width="402" height="115" viewBox="0 0 402 115" fill="none" xmlns="http://www.w3.org/2000/svg">
<path d="M131.451 22.2974V8.5H200.869V22.2974H174.074V103.967H158.524V22.2974H131.451Z" fill="#2F2B70"/>
<path d="M243.39 91.424L247.278 91.006L247.555 102.295C237.004 104.432 227.655 105.5 219.51 105.5C209.236 105.5 201.832 102.666 197.297 96.999C192.854 91.331 190.632 82.272 190.632 69.822C190.632 45.1073 200.675 32.75 220.76 32.75C240.197 32.75 249.916 43.3884 249.916 64.665L248.944 75.536H205.904C205.997 81.296 207.246 85.524 209.653 88.218C212.059 90.913 216.549 92.26 223.12 92.26C229.692 92.26 236.448 91.981 243.39 91.424ZM235.06 63.829C235.06 56.954 233.949 52.169 231.728 49.4741C229.599 46.6868 225.943 45.2931 220.76 45.2931C215.577 45.2931 211.782 46.7332 209.375 49.6135C207.061 52.494 205.858 57.232 205.766 63.829H235.06Z" fill="#2F2B70"/>
<path d="M257.526 103.967V34.2831H272.52V42.6451C280.387 37.535 288.255 34.2366 296.122 32.75V47.9411C288.162 49.5206 281.359 51.565 275.713 54.073L272.659 55.328V103.967H257.526Z" fill="#2F2B70"/>
<path d="M300.749 103.967V34.2831H315.744V42.6451C323.611 37.535 331.478 34.2366 339.346 32.75V47.9411C331.386 49.5206 324.583 51.565 318.937 54.073L315.882 55.328V103.967H300.749Z" fill="#2F2B70"/>
<path d="M395.342 55.746V87.522C395.435 89.566 395.944 91.099 396.87 92.121C397.888 93.05 399.415 93.654 401.451 93.932L401.035 105.5C393.075 105.5 386.92 103.781 382.569 100.343C375.165 103.781 367.714 105.5 360.217 105.5C346.426 105.5 339.53 98.114 339.53 83.341C339.53 76.279 341.381 71.169 345.084 68.01C348.878 64.851 354.663 62.946 362.438 62.296L380.348 60.763V55.746C380.348 52.029 379.515 49.4277 377.849 47.9411C376.275 46.4545 373.915 45.7112 370.768 45.7112C364.845 45.7112 357.44 46.0829 348.554 46.8262L344.112 47.1049L343.556 36.3736C353.645 33.9579 362.901 32.75 371.324 32.75C379.839 32.75 385.948 34.6082 389.65 38.3247C393.445 41.9483 395.342 47.7553 395.342 55.746ZM364.243 73.027C357.857 73.585 354.663 77.069 354.663 83.48C354.663 89.891 357.486 93.096 363.132 93.096C367.76 93.096 372.666 92.353 377.849 90.866L380.348 90.03V71.494L364.243 73.027Z" fill="#2F2B70"/>
<path fill-rule="evenodd" clip-rule="evenodd" d="M89.451 0.5C101.532 0.5 111.612 9.0695 113.943 20.4616C114.276 22.0891 114.451 23.7741 114.451 25.5V89.5C114.451 103.307 103.258 114.5 89.451 114.5H25.4512C22.7177 114.5 20.0868 114.061 17.6248 113.251C7.65101 109.966 0.451202 100.574 0.451202 89.5V25.5C0.451202 11.6929 11.6441 0.5 25.4512 0.5H89.451ZM79.311 8.5H89.451C97.736 8.5 104.637 14.427 106.145 22.2722C101.334 22.8173 95.834 22.3122 90.026 19.8233C84.88 17.6175 81.466 13.531 79.311 8.5ZM55.574 8.5H70.769C73.294 16.0995 78.13 23.4286 86.875 27.1764C93.89 30.1828 100.552 30.8802 106.451 30.2944V38.4687C98.442 41.0041 90.461 42.0302 84.075 40.1611C80.903 39.2327 77.263 36.7678 73.346 32.8902C69.483 29.0657 65.628 24.1468 61.988 18.77C59.726 15.4287 57.572 11.9481 55.574 8.5ZM46.3865 8.5H35.8004C36.2829 17.5527 34.1499 28.6102 26.2153 39.812C20.9585 47.2334 14.742 51.315 8.4512 53.138V69.087C12.2418 66.785 16.7043 63.641 21.929 59.396C34.2739 49.3655 43.9971 45.3747 51.37 44.6447C58.7 43.9189 63.911 46.4616 66.206 49.6753C68.616 53.049 69.978 57.57 70.491 62.338C71.01 67.164 70.694 72.547 69.476 77.889C67.057 88.509 60.914 99.563 49.8478 105.522C49.2452 105.847 48.6371 106.173 48.0243 106.5H60.459C65.322 100.326 69.214 94.192 70.61 89.385C72.185 83.958 72.832 78.205 73.436 72.827L73.437 72.826V72.824C73.654 70.893 73.866 69.009 74.113 67.206C74.542 64.082 75.134 60.772 76.405 58.385C77.078 57.122 78.147 55.716 79.867 54.904C81.678 54.049 83.563 54.154 85.216 54.705C89.85 56.25 96.01 56.57 106.451 53.954V46.8185C98.399 49.0873 89.62 50.1196 81.827 47.839C76.799 46.3673 72.026 42.8406 67.718 38.5754C63.356 34.2572 59.174 28.8824 55.364 23.255C52.105 18.4414 49.0711 13.3719 46.3865 8.5ZM106.451 62.182C96.504 64.459 89.351 64.364 83.301 62.492C82.854 63.539 82.437 65.395 82.039 68.294C81.841 69.734 81.658 71.371 81.459 73.141C80.841 78.657 80.078 85.465 78.292 91.615C76.924 96.329 73.964 101.508 70.446 106.5H78.494C79.979 102.808 81.346 99.292 82.42 96.337C83.574 93.161 84.296 90.877 84.529 89.715C84.97 87.508 85.811 85.133 87.784 83.45C89.836 81.698 92.356 81.322 94.717 81.442C97.042 81.561 99.768 82.187 102.843 83.069C103.961 83.389 105.163 83.755 106.451 84.162V62.182ZM106.191 92.479C104.103 91.801 102.265 91.226 100.637 90.759C97.666 89.906 95.673 89.501 94.311 89.432C93.431 89.387 93.075 89.496 92.973 89.541C92.915 89.609 92.631 89.996 92.374 91.284C92.006 93.122 91.075 95.942 89.939 99.069C89.124 101.313 88.155 103.843 87.106 106.5H89.451C97.824 106.5 104.783 100.447 106.191 92.479ZM30.7629 106.5C36.0019 103.798 41.2898 101.044 46.055 98.478C54.489 93.937 59.596 85.242 61.676 76.112C62.709 71.579 62.955 67.086 62.537 63.194C62.112 59.243 61.037 56.202 59.696 54.325C59.492 54.039 57.453 52.082 52.158 52.606C46.9057 53.126 38.6289 56.135 26.9738 65.605C19.6779 71.533 13.5723 75.594 8.4512 78.279V87.301C9.7136 86.146 11.1391 85.181 12.4565 84.358C13.7986 83.519 15.261 82.694 16.6982 81.888L17.0544 81.688C18.3969 80.936 19.7294 80.189 21.0526 79.397C23.9471 77.663 26.5498 75.852 28.5511 73.745C32.0161 70.097 37.0174 65.744 41.7193 62.772C44.0389 61.305 46.544 60.008 48.9076 59.413C51.126 58.854 54.565 58.627 56.962 61.367C59.243 63.974 60.188 67.884 58.527 72.959C56.949 77.78 52.986 83.866 45.3257 91.782C37.3744 99.998 29.4228 104.114 22.719 105.426C21.9629 105.574 21.2191 105.686 20.4903 105.765C22.0597 106.243 23.7254 106.5 25.4512 106.5H30.7629ZM8.4512 44.6738C12.3271 43.0663 16.1885 40.1271 19.6871 35.1878C26.5953 25.4351 28.2647 15.9781 27.7893 8.5H25.4512C16.0623 8.5 8.4512 16.1112 8.4512 25.5V44.6738ZM92.965 89.545C92.946 89.554 92.938 89.56 92.939 89.56C92.94 89.561 92.944 89.559 92.951 89.554L92.956 89.551L92.965 89.545ZM45.9937 69.534C41.9652 72.08 37.4659 75.976 34.3514 79.255C31.6033 82.148 28.2687 84.4 25.1632 86.26C23.7361 87.114 22.305 87.916 20.9786 88.66L20.6112 88.866C19.1576 89.681 17.8543 90.418 16.6963 91.142C14.1993 92.702 13.1555 93.752 12.8283 94.423C12.7345 94.616 12.7233 94.726 12.7523 94.894C12.7934 95.134 12.9656 95.687 13.6507 96.6L13.7173 96.689L13.7789 96.781C13.7827 96.786 13.8728 96.911 14.1591 97.086C14.4548 97.267 14.9125 97.471 15.5626 97.631C16.8691 97.953 18.7709 98.046 21.183 97.574C25.9794 96.636 32.5281 93.502 39.5769 86.218C46.9169 78.634 49.9022 73.59 50.924 70.471C51.532 68.613 51.407 67.607 51.213 67.093C51.115 67.111 50.999 67.136 50.862 67.171C49.7068 67.462 48.0393 68.241 45.9937 69.534ZM51.643 67.055C51.641 67.058 51.617 67.058 51.577 67.05C51.624 67.049 51.645 67.053 51.643 67.055Z" fill="#2F2B70"/>
</svg>
