<svg width="422" height="88" viewBox="0 0 422 88" fill="none" xmlns="http://www.w3.org/2000/svg">
<path d="M343.104 4.5V82.5H354.52V4.5H343.104Z" fill="#302C72"/>
<path fill-rule="evenodd" clip-rule="evenodd" d="M239.879 83.7589C235.374 83.7589 231.611 82.7099 228.589 80.6109C228.258 80.3819 227.937 80.1429 227.624 79.8949V82.4999H217.551V5.75903H229.051V38.6347C231.872 36.8208 235.285 35.9138 239.291 35.9138C243.628 35.9138 247.405 36.9491 250.623 39.0195C253.841 41.09 256.331 43.93 258.093 47.5394C259.884 51.1209 260.779 55.2199 260.779 59.8359C260.779 64.3689 259.898 68.4399 258.135 72.0499C256.401 75.6589 253.966 78.5129 250.833 80.6109C247.699 82.7099 244.048 83.7589 239.879 83.7589ZM228.631 52.6179C227.959 54.6879 227.624 57.0939 227.624 59.8359C227.624 62.5779 227.959 64.9849 228.631 67.0549C229.302 69.1259 230.394 70.7339 231.904 71.8819C233.443 73.0289 235.486 73.6019 238.032 73.6019C240.494 73.6019 242.509 72.9869 244.076 71.7559C245.643 70.5249 246.804 68.8739 247.559 66.8029C248.315 64.7049 248.692 62.3829 248.692 59.8359C248.692 57.3179 248.301 55.0239 247.517 52.9539C246.734 50.8549 245.517 49.1901 243.866 47.959C242.243 46.7 240.158 46.0704 237.612 46.0704C235.234 46.0704 233.303 46.644 231.821 47.7912C230.366 48.9383 229.302 50.5469 228.631 52.6179Z" fill="#302C72"/>
<path d="M199.503 55.723V82.5H210.918V52.702C210.918 47.7493 209.589 43.7482 206.931 40.6984C204.301 37.6207 200.398 36.0818 195.222 36.0818C192.2 36.0818 189.444 36.7533 186.954 38.0963C184.674 39.314 182.814 40.9874 181.374 43.1167C180.3 41.1843 178.816 39.5948 176.923 38.3481C174.657 36.8372 171.747 36.0818 168.194 36.0818C165.088 36.0818 162.276 36.7673 159.758 38.1383C157.855 39.186 156.246 40.5196 154.931 42.1391V37.173H144.859V82.5H156.358V55.052C156.358 52.45 157.072 50.3374 158.499 48.7146C159.954 47.0638 161.87 46.2384 164.248 46.2384C166.739 46.2384 168.683 47.0778 170.082 48.7566C171.509 50.4074 172.223 52.73 172.223 55.723V82.5H183.638V55.052C183.638 53.317 183.96 51.792 184.604 50.4773C185.275 49.1343 186.198 48.099 187.374 47.3716C188.549 46.6161 189.934 46.2384 191.529 46.2384C194.019 46.2384 195.963 47.0778 197.362 48.7566C198.789 50.4074 199.503 52.73 199.503 55.723Z" fill="#302C72"/>
<path d="M103.96 82.0381C106.198 83.2411 109.094 83.8431 112.648 83.8431C117.096 83.8431 120.776 82.8781 123.686 80.9471C125.067 80.0401 126.284 78.9991 127.337 77.8261V82.5001H137.41V37.1731H125.91V60.1721C125.91 62.9701 125.588 65.2361 124.945 66.9711C124.329 68.6781 123.532 69.9791 122.552 70.8741C121.573 71.7421 120.524 72.3291 119.405 72.6371C118.286 72.9451 117.236 73.0991 116.257 73.0991C113.823 73.0991 111.934 72.5531 110.591 71.4621C109.276 70.3711 108.325 69.0141 107.737 67.3911C107.15 65.7681 106.8 64.1591 106.688 62.5641C106.576 60.9421 106.52 59.6131 106.52 58.5771V37.1731H94.937V62.6061C94.937 63.3621 94.992 64.5651 95.104 66.2161C95.216 67.8671 95.538 69.6991 96.07 71.7141C96.601 73.7001 97.483 75.6171 98.714 77.4641C99.973 79.3101 101.722 80.8351 103.96 82.0381Z" fill="#302C72"/>
<path d="M265.818 37.1731V82.5001H277.317V59.3331C277.317 57.5981 277.555 56.0451 278.031 54.6741C278.507 53.2751 279.206 52.0721 280.129 51.0651C281.053 50.0297 282.186 49.2043 283.529 48.5888C284.872 47.9453 286.369 47.5675 288.02 47.4556C289.698 47.3157 291.167 47.4416 292.426 47.8333V37.1731C291.055 37.0052 289.684 36.9772 288.313 37.0892C286.942 37.1731 285.613 37.4109 284.326 37.8026C283.039 38.1664 281.85 38.684 280.759 39.3555C279.332 40.1949 278.129 41.2581 277.15 42.5452C276.686 43.1545 276.266 43.7951 275.89 44.4671V37.1731H265.818Z" fill="#302C72"/>
<path fill-rule="evenodd" clip-rule="evenodd" d="M316.462 83.7589C311.817 83.7589 307.718 82.7659 304.165 80.7789C300.639 78.7649 297.869 76.0089 295.855 72.5109C293.868 68.9859 292.875 64.9569 292.875 60.4239C292.875 55.4719 293.854 51.1629 295.813 47.4974C297.771 43.832 300.471 40.9921 303.913 38.9776C307.354 36.9351 311.314 35.9138 315.79 35.9138C320.547 35.9138 324.59 37.033 327.919 39.2714C331.249 41.5097 333.711 44.6574 335.306 48.7145C336.901 52.7719 337.461 57.5419 336.985 63.0259H305.158C305.514 65.7469 306.359 67.9569 307.69 69.6569C309.537 71.9519 312.237 73.0989 315.79 73.0989C318.029 73.0989 319.945 72.6089 321.54 71.6299C323.135 70.6509 324.352 69.2379 325.191 67.3909L336.607 70.6649C334.9 74.8059 332.2 78.0229 328.507 80.3169C324.842 82.6119 320.827 83.7589 316.462 83.7589ZM323.471 48.8824C324.446 50.2078 325.101 52.0969 325.435 54.5479H305.458C305.903 52.4549 306.647 50.7339 307.69 49.386C309.537 47.0077 312.405 45.8186 316.294 45.8186C319.624 45.8186 322.016 46.8399 323.471 48.8824Z" fill="#302C72"/>
<path d="M363.744 82.5V4.5H375.16V82.5H363.744Z" fill="#302C72"/>
<path fill-rule="evenodd" clip-rule="evenodd" d="M387.868 81.9119C390.135 83.1429 392.891 83.7589 396.136 83.7589C400.053 83.7589 403.285 83.0869 405.831 81.7439C407.861 80.6629 409.777 79.0609 411.581 76.9359V82.4999H421.57V54.7999C421.57 52.7299 421.486 50.8549 421.318 49.1762C421.15 47.4974 420.618 45.8186 419.723 44.1398C418.128 41.118 415.778 38.9916 412.672 37.7605C409.566 36.5294 406.013 35.9138 402.012 35.9138C396.556 35.9138 392.247 37.089 389.085 39.4393C385.924 41.7895 383.769 44.8393 382.622 48.5886L392.947 51.8619C393.674 49.7917 394.947 48.3508 396.766 47.5394C398.584 46.7279 400.333 46.3222 402.012 46.3222C405.034 46.3222 407.188 46.9518 408.475 48.2109C409.486 49.1996 410.1 50.6279 410.317 52.4969C408.384 52.7899 406.553 53.0679 404.824 53.3309C401.886 53.7509 399.256 54.1989 396.934 54.6739C394.611 55.1499 392.611 55.6959 390.932 56.3109C388.498 57.2059 386.553 58.3259 385.098 59.6689C383.671 60.9839 382.636 62.5079 381.992 64.2429C381.349 65.9779 381.027 67.8949 381.027 69.9929C381.027 72.5109 381.601 74.8189 382.748 76.9179C383.923 78.9879 385.63 80.6529 387.868 81.9119ZM403.859 73.6859C402.432 74.4139 400.669 74.7779 398.57 74.7779C397.255 74.7779 396.122 74.5819 395.171 74.1899C394.22 73.7979 393.478 73.2389 392.947 72.5109C392.443 71.7559 392.191 70.8599 392.191 69.8249C392.191 69.0699 392.345 68.3839 392.653 67.7689C392.988 67.1529 393.492 66.5939 394.164 66.0899C394.863 65.5579 395.772 65.0689 396.892 64.6209C397.871 64.2569 399.004 63.9209 400.291 63.6139C401.578 63.3059 403.271 62.9699 405.369 62.6059C406.718 62.3549 408.332 62.0679 410.212 61.7469C410.186 62.5449 410.138 63.4469 410.07 64.4529C409.986 66.0759 409.65 67.5029 409.063 68.7339C408.755 69.3769 408.167 70.1749 407.3 71.1259C406.461 72.0769 405.314 72.9309 403.859 73.6859Z" fill="#302C72"/>
<path fill-rule="evenodd" clip-rule="evenodd" d="M31.9365 37.5H0.936523V51C0.936523 71.158 17.2781 87.5 37.4365 87.5C57.595 87.5 73.937 71.158 73.937 51V37.5H41.9365V16C41.9365 7.4396 34.9969 0.5 26.4365 0.5C17.8761 0.5 10.9365 7.4396 10.9365 16H20.9365C20.9365 12.9624 23.399 10.5 26.4365 10.5C29.4741 10.5 31.9365 12.9624 31.9365 16V37.5ZM31.9365 47.5V66.5H41.9365V47.5H63.937V51C63.937 65.636 52.072 77.5 37.4365 77.5C22.801 77.5 10.9365 65.636 10.9365 51V47.5H31.9365Z" fill="#302C72"/>
</svg>
